<mxfile host="app.diagrams.net" modified="2022-02-15T14:42:18.542Z" agent="5.0 (X11; Linux x86_64) AppleWebKit/537.36 (KHTML, like Gecko) Chrome/96.0.4664.110 Safari/537.36" etag="iclysB92rUNnbliQnlQS" version="16.5.6" type="github" pages="3">
  <diagram name="Page-1" id="c9db0220-8083-56f3-ca83-edcdcd058819">
    <mxGraphModel dx="1392" dy="823" grid="1" gridSize="10" guides="1" tooltips="1" connect="1" arrows="1" fold="1" page="1" pageScale="1.5" pageWidth="826" pageHeight="1169" background="#ffffff" math="0" shadow="0">
      <root>
        <mxCell id="0" style=";html=1;" />
        <mxCell id="1" style=";html=1;" parent="0" />
        <mxCell id="3d76a8aef4d5c911-1" value="" style="html=1;shadow=0;dashed=0;shape=mxgraph.bootstrap.rect;fillColor=#222222;strokeColor=none;whiteSpace=wrap;rounded=0;fontSize=12;fontColor=#000000;align=center;" parent="1" vertex="1">
          <mxGeometry x="40" y="70" width="1150" height="40" as="geometry" />
        </mxCell>
        <mxCell id="3d76a8aef4d5c911-2" value="Company" style="html=1;shadow=0;dashed=0;fillColor=none;strokeColor=none;shape=mxgraph.bootstrap.rect;fontColor=#999999;fontSize=14;whiteSpace=wrap;" parent="3d76a8aef4d5c911-1" vertex="1">
          <mxGeometry width="115" height="40" as="geometry" />
        </mxCell>
        <mxCell id="3d76a8aef4d5c911-3" value="People" style="html=1;shadow=0;dashed=0;shape=mxgraph.bootstrap.rect;fillColor=#000000;strokeColor=none;fontColor=#ffffff;spacingRight=30;whiteSpace=wrap;" parent="3d76a8aef4d5c911-1" vertex="1">
          <mxGeometry x="115" width="129.375" height="40" as="geometry" />
        </mxCell>
        <mxCell id="3d76a8aef4d5c911-4" value="84" style="html=1;shadow=0;dashed=0;shape=mxgraph.bootstrap.rrect;rSize=8;fillColor=#ff0000;strokeColor=none;fontColor=#ffffff;whiteSpace=wrap;" parent="3d76a8aef4d5c911-3" vertex="1">
          <mxGeometry x="1" y="0.5" width="25" height="16" relative="1" as="geometry">
            <mxPoint x="-30" y="-8" as="offset" />
          </mxGeometry>
        </mxCell>
        <mxCell id="3d76a8aef4d5c911-5" value="Violations" style="html=1;shadow=0;dashed=0;fillColor=none;strokeColor=none;shape=mxgraph.bootstrap.rect;fontColor=#999999;spacingRight=30;whiteSpace=wrap;" parent="3d76a8aef4d5c911-1" vertex="1">
          <mxGeometry x="244.375" width="158.125" height="40" as="geometry" />
        </mxCell>
        <mxCell id="3d76a8aef4d5c911-6" value="42" style="html=1;shadow=0;dashed=0;shape=mxgraph.bootstrap.rrect;rSize=8;fillColor=#ff0000;strokeColor=none;fontColor=#ffffff;whiteSpace=wrap;" parent="3d76a8aef4d5c911-5" vertex="1">
          <mxGeometry x="1" y="0.5" width="25" height="16" relative="1" as="geometry">
            <mxPoint x="-30" y="-8" as="offset" />
          </mxGeometry>
        </mxCell>
        <mxCell id="3d76a8aef4d5c911-7" value="Statistics" style="html=1;shadow=0;dashed=0;fillColor=none;strokeColor=none;shape=mxgraph.bootstrap.rect;fontColor=#999999;whiteSpace=wrap;" parent="3d76a8aef4d5c911-1" vertex="1">
          <mxGeometry x="402.5" width="115" height="40" as="geometry" />
        </mxCell>
        <mxCell id="3d76a8aef4d5c911-8" value="Settings" style="html=1;shadow=0;dashed=0;fillColor=none;strokeColor=none;shape=mxgraph.bootstrap.rect;fontColor=#999999;whiteSpace=wrap;" parent="3d76a8aef4d5c911-1" vertex="1">
          <mxGeometry x="517.5" width="100.625" height="40" as="geometry" />
        </mxCell>
        <mxCell id="3d76a8aef4d5c911-9" value="Profile" style="html=1;shadow=0;dashed=0;fillColor=none;strokeColor=none;shape=mxgraph.bootstrap.rect;fontColor=#999999;whiteSpace=wrap;" parent="3d76a8aef4d5c911-1" vertex="1">
          <mxGeometry x="948.75" width="100.625" height="40" as="geometry" />
        </mxCell>
        <mxCell id="3d76a8aef4d5c911-10" value="Log Out" style="html=1;shadow=0;dashed=0;fillColor=none;strokeColor=none;shape=mxgraph.bootstrap.rect;fontColor=#999999;whiteSpace=wrap;" parent="3d76a8aef4d5c911-1" vertex="1">
          <mxGeometry x="1049.375" width="100.625" height="40" as="geometry" />
        </mxCell>
        <mxCell id="3d76a8aef4d5c911-11" value="" style="html=1;shadow=0;dashed=0;shape=mxgraph.bootstrap.rrect;rSize=5;strokeColor=#dddddd;rounded=0;fontSize=12;align=center;" parent="1" vertex="1">
          <mxGeometry x="860" y="150" width="330" height="400" as="geometry" />
        </mxCell>
        <mxCell id="3d76a8aef4d5c911-12" value="320x200" style="shape=rect;fontSize=24;fillColor=#f0f0f0;strokeColor=none;fontColor=#999999;whiteSpace=wrap;" parent="3d76a8aef4d5c911-11" vertex="1">
          <mxGeometry x="5" y="5" width="320" height="200" as="geometry" />
        </mxCell>
        <mxCell id="3d76a8aef4d5c911-13" value="Thumbnail label" style="html=1;shadow=0;dashed=0;shape=mxgraph.bootstrap.anchor;fontSize=26;align=left;whiteSpace=wrap;" parent="3d76a8aef4d5c911-11" vertex="1">
          <mxGeometry x="15" y="220" width="300" height="40" as="geometry" />
        </mxCell>
        <mxCell id="3d76a8aef4d5c911-14" value="Cras justo odio, dapibus ac facilisis in, egestas eget quam. Donec id elit non mi porta gravida at eget metus. Nullam id dolor id nibh ultricies vehicula ut id elit." style="html=1;shadow=0;dashed=0;shape=mxgraph.bootstrap.anchor;strokeColor=#dddddd;whiteSpace=wrap;align=left;verticalAlign=top;fontSize=14;whiteSpace=wrap;" parent="3d76a8aef4d5c911-11" vertex="1">
          <mxGeometry x="15" y="260" width="300" height="80" as="geometry" />
        </mxCell>
        <mxCell id="3d76a8aef4d5c911-15" value="Button" style="html=1;shadow=0;dashed=0;shape=mxgraph.bootstrap.rrect;rSize=5;fontSize=16;fillColor=#3D8BCD;strokeColor=none;fontColor=#ffffff;whiteSpace=wrap;" parent="3d76a8aef4d5c911-11" vertex="1">
          <mxGeometry y="1" width="80" height="40" relative="1" as="geometry">
            <mxPoint x="15" y="-60" as="offset" />
          </mxGeometry>
        </mxCell>
        <mxCell id="3d76a8aef4d5c911-16" value="Button" style="html=1;shadow=0;dashed=0;shape=mxgraph.bootstrap.rrect;rSize=5;fontSize=16;strokeColor=#dddddd;whiteSpace=wrap;" parent="3d76a8aef4d5c911-11" vertex="1">
          <mxGeometry y="1" width="80" height="40" relative="1" as="geometry">
            <mxPoint x="100" y="-60" as="offset" />
          </mxGeometry>
        </mxCell>
        <mxCell id="3d76a8aef4d5c911-17" value="Template name" style="html=1;shadow=0;dashed=0;shape=mxgraph.bootstrap.rect;strokeColor=none;fillColor=none;fontColor=#999999;align=left;spacingLeft=5;whiteSpace=wrap;rounded=0;" parent="1" vertex="1">
          <mxGeometry x="40" y="130" width="200" height="20" as="geometry" />
        </mxCell>
        <mxCell id="3d76a8aef4d5c911-18" value="Uncompleted Profile" style="html=1;shadow=0;dashed=0;shape=mxgraph.bootstrap.rrect;rSize=5;strokeColor=#dddddd;;align=left;spacingLeft=10;fontSize=16;whiteSpace=wrap;rounded=0;" parent="1" vertex="1">
          <mxGeometry x="40" y="150" width="800" height="40" as="geometry" />
        </mxCell>
        <mxCell id="3d76a8aef4d5c911-19" value="Subject" style="html=1;shadow=0;dashed=0;shape=mxgraph.bootstrap.rect;strokeColor=none;fillColor=none;fontColor=#999999;align=left;spacingLeft=5;whiteSpace=wrap;rounded=0;" parent="1" vertex="1">
          <mxGeometry x="40" y="210" width="200" height="20" as="geometry" />
        </mxCell>
        <mxCell id="3d76a8aef4d5c911-20" value="Hello, %USER_FULL_NAME%" style="html=1;shadow=0;dashed=0;shape=mxgraph.bootstrap.rrect;rSize=5;strokeColor=#dddddd;align=left;spacingLeft=10;fontSize=16;whiteSpace=wrap;rounded=0;" parent="1" vertex="1">
          <mxGeometry x="40" y="230" width="800" height="40" as="geometry" />
        </mxCell>
        <mxCell id="3d76a8aef4d5c911-21" value="Insert System Variable" style="html=1;shadow=0;dashed=0;shape=mxgraph.bootstrap.rect;strokeColor=none;fillColor=none;align=right;fontSize=10;whiteSpace=wrap;rounded=0;" parent="1" vertex="1">
          <mxGeometry x="690" y="210" width="120" height="20" as="geometry" />
        </mxCell>
        <mxCell id="3d76a8aef4d5c911-22" value="" style="shape=triangle;strokeColor=none;fillColor=#000000;direction=south;rounded=0;shadow=1;fontSize=12;fontColor=#000000;align=center;html=1;" parent="1" vertex="1">
          <mxGeometry x="812" y="217" width="8" height="4" as="geometry" />
        </mxCell>
        <mxCell id="3d76a8aef4d5c911-23" value="Message" style="html=1;shadow=0;dashed=0;shape=mxgraph.bootstrap.rect;strokeColor=none;fillColor=none;fontColor=#999999;align=left;spacingLeft=5;whiteSpace=wrap;rounded=0;" parent="1" vertex="1">
          <mxGeometry x="40" y="290" width="200" height="20" as="geometry" />
        </mxCell>
        <mxCell id="3d76a8aef4d5c911-24" value="Hello %USER_FULL_NAME%!&#xa;&#xa;At vero eos et accusamus et iusto odio dignissimos ducimus, qui blanditiis praesentium voluptatum deleniti atque corrupti, quosdolores et quas molestias excepturi sint, obcaecati cupiditate non provident, similique sunt in culpa, qui officia deserunt mollitiaanimi, id est laborum et dolorum fuga. Et harum quidem rerum facilis est et expedita distinctio. Nam libero tempore, cum solutanobis est eligendi optio, cumque nihil impedit, quo minus id, quod maxime placeat, facere possimus, omnis voluptas assumendaest, omnis dolor repellendus." style="html=1;shadow=0;dashed=0;shape=mxgraph.bootstrap.rrect;rSize=5;fontSize=12;strokeColor=#dddddd;align=left;spacing=10;verticalAlign=top;whiteSpace=wrap;rounded=0;" parent="1" vertex="1">
          <mxGeometry x="40" y="310" width="800" height="240" as="geometry" />
        </mxCell>
        <mxCell id="3d76a8aef4d5c911-25" value="Insert System Variable" style="html=1;shadow=0;dashed=0;shape=mxgraph.bootstrap.rect;strokeColor=none;fillColor=none;align=right;fontSize=10;whiteSpace=wrap;rounded=0;" parent="1" vertex="1">
          <mxGeometry x="690" y="290" width="120" height="20" as="geometry" />
        </mxCell>
        <mxCell id="3d76a8aef4d5c911-26" value="" style="shape=triangle;strokeColor=none;fillColor=#000000;direction=south;rounded=0;shadow=1;fontSize=12;fontColor=#000000;align=center;html=1;" parent="1" vertex="1">
          <mxGeometry x="812" y="297" width="8" height="4" as="geometry" />
        </mxCell>
        <mxCell id="3d76a8aef4d5c911-27" value="%USER_FULL_NAME%&#xa;%USER_EMAIL%&#xa;%USER_PROFILE_COMPLETENESS%&#xa;%USER_NUM_SUCCESS_TRADES%&#xa;%USER_FULL_NAME%&#xa;%USER_EMAIL%&#xa;%USER_PROFILE_COMPLETENESS%&#xa;%USER_NUM_SUCCESS_SELLS%" style="html=1;shadow=0;dashed=0;shape=mxgraph.bootstrap.rrect;fontSize=12;rSize=2;strokeColor=#dddddd;align=left;verticalAlign=top;spacing=10;shadow=1;whiteSpace=wrap;rounded=0;" parent="1" vertex="1">
          <mxGeometry x="600" y="310" width="240" height="140" as="geometry" />
        </mxCell>
        <mxCell id="3d76a8aef4d5c911-28" value="Message Type" style="html=1;shadow=0;dashed=0;shape=mxgraph.bootstrap.rect;strokeColor=none;fillColor=none;fontColor=#999999;align=left;spacingLeft=5;whiteSpace=wrap;rounded=0;" parent="1" vertex="1">
          <mxGeometry x="40" y="570" width="200" height="20" as="geometry" />
        </mxCell>
        <mxCell id="3d76a8aef4d5c911-29" value="Email + Push" style="html=1;shadow=0;dashed=0;shape=mxgraph.bootstrap.rrect;rSize=5;strokeColor=#dddddd;align=left;spacingLeft=10;fontSize=16;whiteSpace=wrap;rounded=0;" parent="1" vertex="1">
          <mxGeometry x="40" y="590" width="390" height="40" as="geometry" />
        </mxCell>
        <mxCell id="3d76a8aef4d5c911-30" value="" style="shape=triangle;strokeColor=none;fillColor=#000000;direction=south;rounded=0;shadow=1;fontSize=12;fontColor=#000000;align=center;html=1;" parent="1" vertex="1">
          <mxGeometry x="410" y="607" width="10" height="5" as="geometry" />
        </mxCell>
        <mxCell id="3d76a8aef4d5c911-31" value="Tap target" style="html=1;shadow=0;dashed=0;shape=mxgraph.bootstrap.rect;strokeColor=none;fillColor=none;fontColor=#999999;align=left;spacingLeft=5;whiteSpace=wrap;rounded=0;" parent="1" vertex="1">
          <mxGeometry x="450" y="570" width="200" height="20" as="geometry" />
        </mxCell>
        <mxCell id="3d76a8aef4d5c911-32" value="Profile Screen" style="html=1;shadow=0;dashed=0;shape=mxgraph.bootstrap.rrect;rSize=5;strokeColor=#dddddd;align=left;spacingLeft=10;fontSize=16;whiteSpace=wrap;rounded=0;" parent="1" vertex="1">
          <mxGeometry x="450" y="590" width="390" height="40" as="geometry" />
        </mxCell>
        <mxCell id="3d76a8aef4d5c911-33" value="" style="shape=triangle;strokeColor=none;fillColor=#000000;direction=south;rounded=0;shadow=1;fontSize=12;fontColor=#000000;align=center;html=1;" parent="1" vertex="1">
          <mxGeometry x="820" y="607" width="10" height="5" as="geometry" />
        </mxCell>
        <mxCell id="3d76a8aef4d5c911-34" value="Send to Group" style="html=1;shadow=0;dashed=0;shape=mxgraph.bootstrap.rect;strokeColor=none;fillColor=none;fontColor=#999999;align=left;spacingLeft=5;whiteSpace=wrap;rounded=0;" parent="1" vertex="1">
          <mxGeometry x="40" y="650" width="200" height="20" as="geometry" />
        </mxCell>
        <mxCell id="3d76a8aef4d5c911-35" value="Top Management" style="html=1;shadow=0;dashed=0;shape=mxgraph.bootstrap.checkbox;fontSize=12;strokeColor=#999999;align=left;labelPosition=right;spacingLeft=5;rounded=0;" parent="1" vertex="1">
          <mxGeometry x="50" y="673" width="14" height="14" as="geometry" />
        </mxCell>
        <mxCell id="3d76a8aef4d5c911-36" value="Marketing Department" style="html=1;shadow=0;dashed=0;shape=mxgraph.bootstrap.rrect;fontSize=12;rSize=3;strokeColor=#999999;align=left;labelPosition=right;spacingLeft=5;rounded=0;" parent="1" vertex="1">
          <mxGeometry x="50" y="693" width="14" height="14" as="geometry" />
        </mxCell>
        <mxCell id="3d76a8aef4d5c911-37" value="Design Department" style="html=1;shadow=0;dashed=0;shape=mxgraph.bootstrap.checkbox;fontSize=12;strokeColor=#999999;align=left;labelPosition=right;spacingLeft=5;rounded=0;" parent="1" vertex="1">
          <mxGeometry x="50" y="713" width="14" height="14" as="geometry" />
        </mxCell>
        <mxCell id="3d76a8aef4d5c911-38" value="Financial Department" style="html=1;shadow=0;dashed=0;shape=mxgraph.bootstrap.rrect;fontSize=12;rSize=3;strokeColor=#999999;align=left;labelPosition=right;spacingLeft=5;rounded=0;" parent="1" vertex="1">
          <mxGeometry x="50" y="733" width="14" height="14" as="geometry" />
        </mxCell>
        <mxCell id="3d76a8aef4d5c911-39" value="Supply Department" style="html=1;shadow=0;dashed=0;shape=mxgraph.bootstrap.rrect;fontSize=12;rSize=3;strokeColor=#999999;align=left;labelPosition=right;spacingLeft=5;rounded=0;" parent="1" vertex="1">
          <mxGeometry x="50" y="753" width="14" height="14" as="geometry" />
        </mxCell>
        <mxCell id="3d76a8aef4d5c911-40" value="Set Type" style="html=1;shadow=0;dashed=0;shape=mxgraph.bootstrap.rect;strokeColor=none;fillColor=none;fontColor=#999999;align=left;spacingLeft=5;whiteSpace=wrap;rounded=0;" parent="1" vertex="1">
          <mxGeometry x="450" y="650" width="200" height="20" as="geometry" />
        </mxCell>
        <mxCell id="3d76a8aef4d5c911-41" value="" style="shape=ellipse;dashed=0;strokeColor=#999999;fillColor=#ffffff;html=1;rounded=0;shadow=1;fontSize=12;fontColor=#000000;align=center;" parent="1" vertex="1">
          <mxGeometry x="460" y="673" width="14" height="14" as="geometry" />
        </mxCell>
        <mxCell id="3d76a8aef4d5c911-42" value="News" style="html=1;shadow=0;dashed=0;shape=mxgraph.bootstrap.rrect;align=center;rSize=3;strokeColor=none;fillColor=#58B957;fontColor=#ffffff;fontStyle=1;fontSize=10;whiteSpace=wrap;rounded=0;" parent="1" vertex="1">
          <mxGeometry x="480" y="673" width="40" height="14" as="geometry" />
        </mxCell>
        <mxCell id="3d76a8aef4d5c911-43" value="" style="html=1;shadow=0;dashed=0;shape=mxgraph.bootstrap.radioButton;strokeColor=#999999;fillColor=#ffffff;rounded=0;fontSize=12;fontColor=#000000;align=center;" parent="1" vertex="1">
          <mxGeometry x="460" y="693" width="14" height="14" as="geometry" />
        </mxCell>
        <mxCell id="3d76a8aef4d5c911-44" value="Reports" style="html=1;shadow=0;dashed=0;shape=mxgraph.bootstrap.rrect;align=center;rSize=3;strokeColor=none;fillColor=#55BFE0;fontColor=#ffffff;fontStyle=1;fontSize=10;whiteSpace=wrap;rounded=0;" parent="1" vertex="1">
          <mxGeometry x="480" y="693" width="50" height="14" as="geometry" />
        </mxCell>
        <mxCell id="3d76a8aef4d5c911-45" value="" style="shape=ellipse;dashed=0;strokeColor=#999999;fillColor=#ffffff;html=1;rounded=0;shadow=1;fontSize=12;fontColor=#000000;align=center;" parent="1" vertex="1">
          <mxGeometry x="460" y="713" width="14" height="14" as="geometry" />
        </mxCell>
        <mxCell id="3d76a8aef4d5c911-46" value="Documents" style="html=1;shadow=0;dashed=0;shape=mxgraph.bootstrap.rrect;align=center;rSize=3;strokeColor=none;fillColor=#EFAC43;fontColor=#ffffff;fontStyle=1;fontSize=10;whiteSpace=wrap;rounded=0;" parent="1" vertex="1">
          <mxGeometry x="480" y="713" width="70" height="14" as="geometry" />
        </mxCell>
        <mxCell id="3d76a8aef4d5c911-47" value="" style="shape=ellipse;dashed=0;strokeColor=#999999;fillColor=#ffffff;html=1;rounded=0;shadow=1;fontSize=12;fontColor=#000000;align=center;" parent="1" vertex="1">
          <mxGeometry x="460" y="733" width="14" height="14" as="geometry" />
        </mxCell>
        <mxCell id="3d76a8aef4d5c911-48" value="Media" style="html=1;shadow=0;dashed=0;shape=mxgraph.bootstrap.rrect;align=center;rSize=3;strokeColor=none;fillColor=#3D8BCD;fontColor=#ffffff;fontStyle=1;fontSize=10;whiteSpace=wrap;rounded=0;" parent="1" vertex="1">
          <mxGeometry x="480" y="733" width="40" height="14" as="geometry" />
        </mxCell>
        <mxCell id="3d76a8aef4d5c911-49" value="" style="shape=ellipse;dashed=0;strokeColor=#999999;fillColor=#ffffff;html=1;rounded=0;shadow=1;fontSize=12;fontColor=#000000;align=center;" parent="1" vertex="1">
          <mxGeometry x="460" y="753" width="14" height="14" as="geometry" />
        </mxCell>
        <mxCell id="3d76a8aef4d5c911-50" value="Text" style="html=1;shadow=0;dashed=0;shape=mxgraph.bootstrap.rrect;align=center;rSize=3;strokeColor=none;fillColor=#999999;fontColor=#ffffff;fontStyle=1;fontSize=10;whiteSpace=wrap;rounded=0;" parent="1" vertex="1">
          <mxGeometry x="480" y="753" width="30" height="14" as="geometry" />
        </mxCell>
        <mxCell id="3d76a8aef4d5c911-51" value="Save Template" style="html=1;shadow=0;dashed=0;shape=mxgraph.bootstrap.rrect;align=center;rSize=5;strokeColor=none;fillColor=#3D8BCD;fontColor=#ffffff;fontSize=16;whiteSpace=wrap;rounded=0;" parent="1" vertex="1">
          <mxGeometry x="40" y="810" width="150" height="40" as="geometry" />
        </mxCell>
        <mxCell id="3d76a8aef4d5c911-52" value="Cancel" style="html=1;shadow=0;dashed=0;shape=mxgraph.bootstrap.rrect;align=center;rSize=5;strokeColor=#dddddd;fontSize=16;whiteSpace=wrap;rounded=0;" parent="1" vertex="1">
          <mxGeometry x="210" y="810" width="100" height="40" as="geometry" />
        </mxCell>
        <mxCell id="3d76a8aef4d5c911-53" value="Delete Template" style="html=1;shadow=0;dashed=0;shape=mxgraph.bootstrap.rrect;align=center;rSize=5;strokeColor=none;fillColor=#DB524C;fontColor=#ffffff;fontSize=16;whiteSpace=wrap;rounded=0;" parent="1" vertex="1">
          <mxGeometry x="670" y="810" width="170" height="40" as="geometry" />
        </mxCell>
        <mxCell id="3d76a8aef4d5c911-54" value="" style="html=1;shadow=0;dashed=0;shape=mxgraph.bootstrap.rrect;rSize=5;strokeColor=#dddddd;rounded=0;fontSize=12;align=center;" parent="1" vertex="1">
          <mxGeometry x="860" y="580" width="330" height="400" as="geometry" />
        </mxCell>
        <mxCell id="3d76a8aef4d5c911-55" value="320x200" style="shape=rect;fontSize=24;fillColor=#f0f0f0;strokeColor=none;fontColor=#999999;whiteSpace=wrap;" parent="3d76a8aef4d5c911-54" vertex="1">
          <mxGeometry x="5" y="5" width="320" height="200" as="geometry" />
        </mxCell>
        <mxCell id="3d76a8aef4d5c911-56" value="Thumbnail label" style="html=1;shadow=0;dashed=0;shape=mxgraph.bootstrap.anchor;fontSize=26;align=left;whiteSpace=wrap;" parent="3d76a8aef4d5c911-54" vertex="1">
          <mxGeometry x="15" y="220" width="300" height="40" as="geometry" />
        </mxCell>
        <mxCell id="3d76a8aef4d5c911-57" value="Cras justo odio, dapibus ac facilisis in, egestas eget quam. Donec id elit non mi porta gravida at eget metus. Nullam id dolor id nibh ultricies vehicula ut id elit." style="html=1;shadow=0;dashed=0;shape=mxgraph.bootstrap.anchor;strokeColor=#dddddd;whiteSpace=wrap;align=left;verticalAlign=top;fontSize=14;whiteSpace=wrap;" parent="3d76a8aef4d5c911-54" vertex="1">
          <mxGeometry x="15" y="260" width="300" height="80" as="geometry" />
        </mxCell>
        <mxCell id="3d76a8aef4d5c911-58" value="Button" style="html=1;shadow=0;dashed=0;shape=mxgraph.bootstrap.rrect;rSize=5;fontSize=16;fillColor=#3D8BCD;strokeColor=none;fontColor=#ffffff;whiteSpace=wrap;" parent="3d76a8aef4d5c911-54" vertex="1">
          <mxGeometry y="1" width="80" height="40" relative="1" as="geometry">
            <mxPoint x="15" y="-60" as="offset" />
          </mxGeometry>
        </mxCell>
        <mxCell id="3d76a8aef4d5c911-59" value="Button" style="html=1;shadow=0;dashed=0;shape=mxgraph.bootstrap.rrect;rSize=5;fontSize=16;strokeColor=#dddddd;whiteSpace=wrap;" parent="3d76a8aef4d5c911-54" vertex="1">
          <mxGeometry y="1" width="80" height="40" relative="1" as="geometry">
            <mxPoint x="100" y="-60" as="offset" />
          </mxGeometry>
        </mxCell>
      </root>
    </mxGraphModel>
  </diagram>
  <diagram id="GwYfpjJH9VO5fKc5FslF" name="Page-2">
    <mxGraphModel dx="3083" dy="2914" grid="1" gridSize="10" guides="1" tooltips="1" connect="1" arrows="1" fold="1" page="1" pageScale="1" pageWidth="850" pageHeight="1100" math="0" shadow="1">
      <root>
        <mxCell id="M9VMMHDDHPspccxscUko-0" />
        <mxCell id="M9VMMHDDHPspccxscUko-1" parent="M9VMMHDDHPspccxscUko-0" />
        <mxCell id="39L9P5LZ6C69ixdn0n8w-1" value="" style="rounded=0;whiteSpace=wrap;html=1;" vertex="1" parent="M9VMMHDDHPspccxscUko-1">
          <mxGeometry x="40" y="-160" width="960" height="1000" as="geometry" />
        </mxCell>
        <mxCell id="39L9P5LZ6C69ixdn0n8w-2" value="HEADER" style="rounded=0;whiteSpace=wrap;html=1;fillColor=#919191;fontColor=#FFFFFF;" vertex="1" parent="M9VMMHDDHPspccxscUko-1">
          <mxGeometry x="40" y="-160" width="960" height="160" as="geometry" />
        </mxCell>
        <mxCell id="p_hJxcabzia8E2aWTGxL-0" value="LOGO" style="rounded=0;whiteSpace=wrap;html=1;fillColor=#fad7ac;strokeColor=#b46504;" vertex="1" parent="M9VMMHDDHPspccxscUko-1">
          <mxGeometry x="40" y="-160" width="160" height="160" as="geometry" />
        </mxCell>
        <mxCell id="p_hJxcabzia8E2aWTGxL-6" value="course 1" style="rounded=0;whiteSpace=wrap;html=1;" vertex="1" parent="M9VMMHDDHPspccxscUko-1">
          <mxGeometry x="120" y="41" width="800" height="200" as="geometry" />
        </mxCell>
        <mxCell id="p_hJxcabzia8E2aWTGxL-9" value="&lt;font color=&quot;#ffffff&quot;&gt;FOOTER&lt;/font&gt;" style="rounded=0;whiteSpace=wrap;html=1;strokeColor=#000000;fillColor=#5E5E5E;" vertex="1" parent="M9VMMHDDHPspccxscUko-1">
          <mxGeometry x="40" y="681" width="960" height="160" as="geometry" />
        </mxCell>
        <mxCell id="p_hJxcabzia8E2aWTGxL-10" style="edgeStyle=orthogonalEdgeStyle;rounded=0;orthogonalLoop=1;jettySize=auto;html=1;exitX=0.5;exitY=1;exitDx=0;exitDy=0;" edge="1" parent="M9VMMHDDHPspccxscUko-1" source="39L9P5LZ6C69ixdn0n8w-1" target="39L9P5LZ6C69ixdn0n8w-1">
          <mxGeometry relative="1" as="geometry" />
        </mxCell>
        <mxCell id="p_hJxcabzia8E2aWTGxL-11" value="SIGN IN \ SIGN UP" style="rounded=0;whiteSpace=wrap;html=1;fillColor=#cce5ff;strokeColor=#36393d;" vertex="1" parent="M9VMMHDDHPspccxscUko-1">
          <mxGeometry x="760" y="-160" width="240" height="40" as="geometry" />
        </mxCell>
        <mxCell id="zuxQxWUdCscNBMgo1NWX-0" value="" style="rounded=0;whiteSpace=wrap;html=1;" vertex="1" parent="M9VMMHDDHPspccxscUko-1">
          <mxGeometry x="40" y="2930" width="760" height="880" as="geometry" />
        </mxCell>
        <mxCell id="zuxQxWUdCscNBMgo1NWX-1" value="HEADER" style="rounded=0;whiteSpace=wrap;html=1;fillColor=#919191;fontColor=#FFFFFF;" vertex="1" parent="M9VMMHDDHPspccxscUko-1">
          <mxGeometry x="40" y="2810" width="760" height="80" as="geometry" />
        </mxCell>
        <mxCell id="zuxQxWUdCscNBMgo1NWX-2" value="LOGO" style="rounded=0;whiteSpace=wrap;html=1;fillColor=#919191;fontColor=#FFFFFF;" vertex="1" parent="M9VMMHDDHPspccxscUko-1">
          <mxGeometry x="40" y="2810" width="120" height="80" as="geometry" />
        </mxCell>
        <mxCell id="zuxQxWUdCscNBMgo1NWX-3" value="course 1" style="rounded=0;whiteSpace=wrap;html=1;" vertex="1" parent="M9VMMHDDHPspccxscUko-1">
          <mxGeometry x="80" y="2970" width="680" height="200" as="geometry" />
        </mxCell>
        <mxCell id="zuxQxWUdCscNBMgo1NWX-4" value="course 2" style="rounded=0;whiteSpace=wrap;html=1;" vertex="1" parent="M9VMMHDDHPspccxscUko-1">
          <mxGeometry x="80" y="3210" width="680" height="200" as="geometry" />
        </mxCell>
        <mxCell id="zuxQxWUdCscNBMgo1NWX-5" value="course 3" style="rounded=0;whiteSpace=wrap;html=1;" vertex="1" parent="M9VMMHDDHPspccxscUko-1">
          <mxGeometry x="80" y="3450" width="680" height="200" as="geometry" />
        </mxCell>
        <mxCell id="zuxQxWUdCscNBMgo1NWX-6" value="&lt;font color=&quot;#ffffff&quot;&gt;FOOTER&lt;/font&gt;" style="rounded=0;whiteSpace=wrap;html=1;strokeColor=#000000;fillColor=#5E5E5E;" vertex="1" parent="M9VMMHDDHPspccxscUko-1">
          <mxGeometry x="40" y="3690" width="760" height="120" as="geometry" />
        </mxCell>
        <mxCell id="zuxQxWUdCscNBMgo1NWX-7" style="edgeStyle=orthogonalEdgeStyle;rounded=0;orthogonalLoop=1;jettySize=auto;html=1;exitX=0.5;exitY=1;exitDx=0;exitDy=0;" edge="1" parent="M9VMMHDDHPspccxscUko-1" source="zuxQxWUdCscNBMgo1NWX-0" target="zuxQxWUdCscNBMgo1NWX-0">
          <mxGeometry relative="1" as="geometry" />
        </mxCell>
        <mxCell id="zuxQxWUdCscNBMgo1NWX-8" value="SIGN OUT" style="rounded=0;whiteSpace=wrap;html=1;fillColor=#919191;fontColor=#FFFFFF;" vertex="1" parent="M9VMMHDDHPspccxscUko-1">
          <mxGeometry x="680" y="2890" width="120" height="40" as="geometry" />
        </mxCell>
        <mxCell id="zuxQxWUdCscNBMgo1NWX-9" value="DASHBOARD" style="rounded=0;whiteSpace=wrap;html=1;fillColor=#f8cecc;strokeColor=#b85450;" vertex="1" parent="M9VMMHDDHPspccxscUko-1">
          <mxGeometry x="40" y="2890" width="120" height="40" as="geometry" />
        </mxCell>
        <mxCell id="zuxQxWUdCscNBMgo1NWX-10" value="CABINET" style="rounded=0;whiteSpace=wrap;html=1;fillColor=#919191;fontColor=#FFFFFF;" vertex="1" parent="M9VMMHDDHPspccxscUko-1">
          <mxGeometry x="160" y="2890" width="120" height="40" as="geometry" />
        </mxCell>
        <mxCell id="zuxQxWUdCscNBMgo1NWX-11" value="" style="rounded=0;whiteSpace=wrap;html=1;" vertex="1" parent="M9VMMHDDHPspccxscUko-1">
          <mxGeometry x="40" y="3990" width="760" height="880" as="geometry" />
        </mxCell>
        <mxCell id="zuxQxWUdCscNBMgo1NWX-12" value="HEADER" style="rounded=0;whiteSpace=wrap;html=1;fillColor=#919191;fontColor=#FFFFFF;" vertex="1" parent="M9VMMHDDHPspccxscUko-1">
          <mxGeometry x="40" y="3870" width="760" height="80" as="geometry" />
        </mxCell>
        <mxCell id="zuxQxWUdCscNBMgo1NWX-13" value="LOGO" style="rounded=0;whiteSpace=wrap;html=1;fillColor=#919191;fontColor=#FFFFFF;" vertex="1" parent="M9VMMHDDHPspccxscUko-1">
          <mxGeometry x="40" y="3870" width="120" height="80" as="geometry" />
        </mxCell>
        <mxCell id="zuxQxWUdCscNBMgo1NWX-17" value="&lt;font color=&quot;#ffffff&quot;&gt;FOOTER&lt;/font&gt;" style="rounded=0;whiteSpace=wrap;html=1;strokeColor=#000000;fillColor=#5E5E5E;" vertex="1" parent="M9VMMHDDHPspccxscUko-1">
          <mxGeometry x="40" y="4750" width="760" height="120" as="geometry" />
        </mxCell>
        <mxCell id="zuxQxWUdCscNBMgo1NWX-18" style="edgeStyle=orthogonalEdgeStyle;rounded=0;orthogonalLoop=1;jettySize=auto;html=1;exitX=0.5;exitY=1;exitDx=0;exitDy=0;" edge="1" source="zuxQxWUdCscNBMgo1NWX-11" target="zuxQxWUdCscNBMgo1NWX-11" parent="M9VMMHDDHPspccxscUko-1">
          <mxGeometry relative="1" as="geometry" />
        </mxCell>
        <mxCell id="zuxQxWUdCscNBMgo1NWX-19" value="SIGN OUT" style="rounded=0;whiteSpace=wrap;html=1;fillColor=#919191;fontColor=#FFFFFF;" vertex="1" parent="M9VMMHDDHPspccxscUko-1">
          <mxGeometry x="680" y="3950" width="120" height="40" as="geometry" />
        </mxCell>
        <mxCell id="zuxQxWUdCscNBMgo1NWX-20" value="&lt;font color=&quot;#ffffff&quot;&gt;DASHBOARD&lt;/font&gt;" style="rounded=0;whiteSpace=wrap;html=1;fillColor=#919191;strokeColor=#b85450;" vertex="1" parent="M9VMMHDDHPspccxscUko-1">
          <mxGeometry x="40" y="3950" width="120" height="40" as="geometry" />
        </mxCell>
        <mxCell id="zuxQxWUdCscNBMgo1NWX-21" value="CABINET" style="rounded=0;whiteSpace=wrap;html=1;fillColor=#f8cecc;strokeColor=#b85450;" vertex="1" parent="M9VMMHDDHPspccxscUko-1">
          <mxGeometry x="160" y="3950" width="120" height="40" as="geometry" />
        </mxCell>
        <mxCell id="zuxQxWUdCscNBMgo1NWX-23" value="" style="rounded=0;whiteSpace=wrap;html=1;labelBackgroundColor=none;fontColor=#FFFFFF;strokeColor=#000000;fillColor=#919191;" vertex="1" parent="M9VMMHDDHPspccxscUko-1">
          <mxGeometry x="40" y="3990" width="240" height="760" as="geometry" />
        </mxCell>
        <mxCell id="zuxQxWUdCscNBMgo1NWX-24" value="MY COURSES" style="rounded=0;whiteSpace=wrap;html=1;labelBackgroundColor=none;fontColor=#333333;strokeColor=#666666;fillColor=#f5f5f5;" vertex="1" parent="M9VMMHDDHPspccxscUko-1">
          <mxGeometry x="40" y="3990" width="240" height="40" as="geometry" />
        </mxCell>
        <mxCell id="zuxQxWUdCscNBMgo1NWX-25" value="" style="rounded=0;whiteSpace=wrap;html=1;labelBackgroundColor=none;strokeColor=#6c8ebf;fillColor=#dae8fc;" vertex="1" parent="M9VMMHDDHPspccxscUko-1">
          <mxGeometry x="40" y="4030" width="240" height="40" as="geometry" />
        </mxCell>
        <mxCell id="zuxQxWUdCscNBMgo1NWX-26" value="" style="rounded=0;whiteSpace=wrap;html=1;labelBackgroundColor=none;strokeColor=#6c8ebf;fillColor=#dae8fc;" vertex="1" parent="M9VMMHDDHPspccxscUko-1">
          <mxGeometry x="40" y="4070" width="240" height="40" as="geometry" />
        </mxCell>
        <mxCell id="zuxQxWUdCscNBMgo1NWX-27" value="" style="rounded=0;whiteSpace=wrap;html=1;labelBackgroundColor=none;strokeColor=#6c8ebf;fillColor=#dae8fc;" vertex="1" parent="M9VMMHDDHPspccxscUko-1">
          <mxGeometry x="40" y="4110" width="240" height="40" as="geometry" />
        </mxCell>
        <mxCell id="zuxQxWUdCscNBMgo1NWX-28" value="https://knowledge.ewo.dom" style="rounded=0;whiteSpace=wrap;html=1;labelBackgroundColor=none;strokeColor=#82b366;fillColor=#d5e8d4;align=left;" vertex="1" parent="M9VMMHDDHPspccxscUko-1">
          <mxGeometry x="40" y="-180" width="960" height="20" as="geometry" />
        </mxCell>
        <mxCell id="zuxQxWUdCscNBMgo1NWX-29" value="" style="rounded=0;whiteSpace=wrap;html=1;labelBackgroundColor=none;strokeColor=#82b366;fillColor=#d5e8d4;" vertex="1" parent="M9VMMHDDHPspccxscUko-1">
          <mxGeometry x="40" y="2790" width="760" height="20" as="geometry" />
        </mxCell>
        <mxCell id="zuxQxWUdCscNBMgo1NWX-30" value="" style="rounded=0;whiteSpace=wrap;html=1;labelBackgroundColor=none;strokeColor=#82b366;fillColor=#d5e8d4;" vertex="1" parent="M9VMMHDDHPspccxscUko-1">
          <mxGeometry x="40" y="3850" width="760" height="20" as="geometry" />
        </mxCell>
        <mxCell id="zuxQxWUdCscNBMgo1NWX-32" value="course 1" style="rounded=0;whiteSpace=wrap;html=1;" vertex="1" parent="M9VMMHDDHPspccxscUko-1">
          <mxGeometry x="290" y="4030" width="500" height="120" as="geometry" />
        </mxCell>
        <mxCell id="zuxQxWUdCscNBMgo1NWX-33" value="course 2" style="rounded=0;whiteSpace=wrap;html=1;" vertex="1" parent="M9VMMHDDHPspccxscUko-1">
          <mxGeometry x="290" y="4170" width="500" height="120" as="geometry" />
        </mxCell>
        <mxCell id="zuxQxWUdCscNBMgo1NWX-34" value="course 3" style="rounded=0;whiteSpace=wrap;html=1;" vertex="1" parent="M9VMMHDDHPspccxscUko-1">
          <mxGeometry x="290" y="4310" width="500" height="120" as="geometry" />
        </mxCell>
        <mxCell id="zuxQxWUdCscNBMgo1NWX-35" value="course ..." style="rounded=0;whiteSpace=wrap;html=1;" vertex="1" parent="M9VMMHDDHPspccxscUko-1">
          <mxGeometry x="290" y="4450" width="500" height="120" as="geometry" />
        </mxCell>
        <mxCell id="zuxQxWUdCscNBMgo1NWX-36" value="1 2 3 ... last" style="rounded=1;whiteSpace=wrap;html=1;labelBackgroundColor=none;strokeColor=#9673a6;fillColor=#e1d5e7;" vertex="1" parent="M9VMMHDDHPspccxscUko-1">
          <mxGeometry x="290" y="4590" width="490" height="40" as="geometry" />
        </mxCell>
        <mxCell id="zuxQxWUdCscNBMgo1NWX-37" value="1 2 3 ... last" style="rounded=1;whiteSpace=wrap;html=1;labelBackgroundColor=none;strokeColor=#9673a6;fillColor=#e1d5e7;" vertex="1" parent="M9VMMHDDHPspccxscUko-1">
          <mxGeometry x="80" y="3650" width="680" height="40" as="geometry" />
        </mxCell>
        <mxCell id="zuxQxWUdCscNBMgo1NWX-38" value="1 2 3 ... last" style="rounded=1;whiteSpace=wrap;html=1;labelBackgroundColor=none;strokeColor=#9673a6;fillColor=#e1d5e7;" vertex="1" parent="M9VMMHDDHPspccxscUko-1">
          <mxGeometry x="120" y="641" width="800" height="40" as="geometry" />
        </mxCell>
        <mxCell id="zuxQxWUdCscNBMgo1NWX-39" value="1 2 3 ... last" style="rounded=1;whiteSpace=wrap;html=1;labelBackgroundColor=none;strokeColor=#9673a6;fillColor=#e1d5e7;" vertex="1" parent="M9VMMHDDHPspccxscUko-1">
          <mxGeometry x="120" width="800" height="41" as="geometry" />
        </mxCell>
        <mxCell id="zuxQxWUdCscNBMgo1NWX-41" value="1 2 3 ... last" style="rounded=1;whiteSpace=wrap;html=1;labelBackgroundColor=none;strokeColor=#9673a6;fillColor=#e1d5e7;" vertex="1" parent="M9VMMHDDHPspccxscUko-1">
          <mxGeometry x="80" y="2930" width="680" height="40" as="geometry" />
        </mxCell>
        <mxCell id="zuxQxWUdCscNBMgo1NWX-42" value="" style="rounded=0;whiteSpace=wrap;html=1;" vertex="1" parent="M9VMMHDDHPspccxscUko-1">
          <mxGeometry x="1640" y="59.17" width="760" height="880" as="geometry" />
        </mxCell>
        <mxCell id="zuxQxWUdCscNBMgo1NWX-43" value="HEADER" style="rounded=0;whiteSpace=wrap;html=1;fillColor=#919191;fontColor=#FFFFFF;" vertex="1" parent="M9VMMHDDHPspccxscUko-1">
          <mxGeometry x="1640" y="-60.83" width="760" height="80" as="geometry" />
        </mxCell>
        <mxCell id="zuxQxWUdCscNBMgo1NWX-44" value="LOGO" style="rounded=0;whiteSpace=wrap;html=1;fillColor=#919191;fontColor=#FFFFFF;" vertex="1" parent="M9VMMHDDHPspccxscUko-1">
          <mxGeometry x="1640" y="-60.83" width="120" height="80" as="geometry" />
        </mxCell>
        <mxCell id="zuxQxWUdCscNBMgo1NWX-45" value="&lt;font color=&quot;#ffffff&quot;&gt;FOOTER&lt;/font&gt;" style="rounded=0;whiteSpace=wrap;html=1;strokeColor=#000000;fillColor=#5E5E5E;" vertex="1" parent="M9VMMHDDHPspccxscUko-1">
          <mxGeometry x="1640" y="819.17" width="760" height="120" as="geometry" />
        </mxCell>
        <mxCell id="zuxQxWUdCscNBMgo1NWX-46" style="edgeStyle=orthogonalEdgeStyle;rounded=0;orthogonalLoop=1;jettySize=auto;html=1;exitX=0.5;exitY=1;exitDx=0;exitDy=0;" edge="1" source="zuxQxWUdCscNBMgo1NWX-42" target="zuxQxWUdCscNBMgo1NWX-42" parent="M9VMMHDDHPspccxscUko-1">
          <mxGeometry relative="1" as="geometry" />
        </mxCell>
        <mxCell id="zuxQxWUdCscNBMgo1NWX-47" value="SIGN OUT" style="rounded=0;whiteSpace=wrap;html=1;fillColor=#919191;fontColor=#FFFFFF;" vertex="1" parent="M9VMMHDDHPspccxscUko-1">
          <mxGeometry x="2280" y="19.17" width="120" height="40" as="geometry" />
        </mxCell>
        <mxCell id="zuxQxWUdCscNBMgo1NWX-48" value="&lt;font color=&quot;#ffffff&quot;&gt;DASHBOARD&lt;/font&gt;" style="rounded=0;whiteSpace=wrap;html=1;fillColor=#919191;strokeColor=#b85450;" vertex="1" parent="M9VMMHDDHPspccxscUko-1">
          <mxGeometry x="1640" y="19.17" width="120" height="40" as="geometry" />
        </mxCell>
        <mxCell id="zuxQxWUdCscNBMgo1NWX-49" value="CABINET" style="rounded=0;whiteSpace=wrap;html=1;fillColor=#f8cecc;strokeColor=#b85450;" vertex="1" parent="M9VMMHDDHPspccxscUko-1">
          <mxGeometry x="1760" y="19.17" width="120" height="40" as="geometry" />
        </mxCell>
        <mxCell id="zuxQxWUdCscNBMgo1NWX-50" value="" style="rounded=0;whiteSpace=wrap;html=1;labelBackgroundColor=none;fontColor=#FFFFFF;strokeColor=#000000;fillColor=#919191;" vertex="1" parent="M9VMMHDDHPspccxscUko-1">
          <mxGeometry x="1640" y="59.17" width="240" height="760" as="geometry" />
        </mxCell>
        <mxCell id="zuxQxWUdCscNBMgo1NWX-51" value="MY COURSES" style="rounded=0;whiteSpace=wrap;html=1;labelBackgroundColor=none;fontColor=#333333;strokeColor=#666666;fillColor=#f5f5f5;" vertex="1" parent="M9VMMHDDHPspccxscUko-1">
          <mxGeometry x="1640" y="59.17" width="240" height="40" as="geometry" />
        </mxCell>
        <mxCell id="zuxQxWUdCscNBMgo1NWX-52" value="" style="rounded=0;whiteSpace=wrap;html=1;labelBackgroundColor=none;strokeColor=#6c8ebf;fillColor=#dae8fc;" vertex="1" parent="M9VMMHDDHPspccxscUko-1">
          <mxGeometry x="1640" y="99.17" width="240" height="40" as="geometry" />
        </mxCell>
        <mxCell id="zuxQxWUdCscNBMgo1NWX-53" value="" style="rounded=0;whiteSpace=wrap;html=1;labelBackgroundColor=none;strokeColor=#6c8ebf;fillColor=#dae8fc;" vertex="1" parent="M9VMMHDDHPspccxscUko-1">
          <mxGeometry x="1640" y="139.17" width="240" height="40" as="geometry" />
        </mxCell>
        <mxCell id="zuxQxWUdCscNBMgo1NWX-54" value="" style="rounded=0;whiteSpace=wrap;html=1;labelBackgroundColor=none;strokeColor=#6c8ebf;fillColor=#dae8fc;" vertex="1" parent="M9VMMHDDHPspccxscUko-1">
          <mxGeometry x="1640" y="179.17" width="240" height="40" as="geometry" />
        </mxCell>
        <mxCell id="zuxQxWUdCscNBMgo1NWX-55" value="" style="rounded=0;whiteSpace=wrap;html=1;labelBackgroundColor=none;strokeColor=#82b366;fillColor=#d5e8d4;" vertex="1" parent="M9VMMHDDHPspccxscUko-1">
          <mxGeometry x="1640" y="-80.83" width="760" height="20" as="geometry" />
        </mxCell>
        <mxCell id="zuxQxWUdCscNBMgo1NWX-56" value="course 1" style="rounded=0;whiteSpace=wrap;html=1;" vertex="1" parent="M9VMMHDDHPspccxscUko-1">
          <mxGeometry x="1890" y="99.17" width="500" height="120" as="geometry" />
        </mxCell>
        <mxCell id="zuxQxWUdCscNBMgo1NWX-57" value="course 2" style="rounded=0;whiteSpace=wrap;html=1;" vertex="1" parent="M9VMMHDDHPspccxscUko-1">
          <mxGeometry x="1890" y="239.17" width="500" height="120" as="geometry" />
        </mxCell>
        <mxCell id="zuxQxWUdCscNBMgo1NWX-58" value="course 3" style="rounded=0;whiteSpace=wrap;html=1;" vertex="1" parent="M9VMMHDDHPspccxscUko-1">
          <mxGeometry x="1890" y="379.17" width="500" height="120" as="geometry" />
        </mxCell>
        <mxCell id="zuxQxWUdCscNBMgo1NWX-59" value="course ..." style="rounded=0;whiteSpace=wrap;html=1;" vertex="1" parent="M9VMMHDDHPspccxscUko-1">
          <mxGeometry x="1890" y="519.17" width="500" height="120" as="geometry" />
        </mxCell>
        <mxCell id="zuxQxWUdCscNBMgo1NWX-60" value="1 2 3 ... last" style="rounded=1;whiteSpace=wrap;html=1;labelBackgroundColor=none;strokeColor=#9673a6;fillColor=#e1d5e7;" vertex="1" parent="M9VMMHDDHPspccxscUko-1">
          <mxGeometry x="1890" y="659.17" width="490" height="40" as="geometry" />
        </mxCell>
        <mxCell id="zuxQxWUdCscNBMgo1NWX-61" value="" style="rounded=0;whiteSpace=wrap;html=1;labelBackgroundColor=none;fontColor=#000000;strokeColor=#FFFF99;fillColor=#919191;" vertex="1" parent="M9VMMHDDHPspccxscUko-1">
          <mxGeometry x="40" y="-220" width="240" height="40" as="geometry" />
        </mxCell>
        <mxCell id="zuxQxWUdCscNBMgo1NWX-62" value="" style="rounded=0;whiteSpace=wrap;html=1;labelBackgroundColor=none;fontColor=#000000;strokeColor=#FFFF99;fillColor=#919191;" vertex="1" parent="M9VMMHDDHPspccxscUko-1">
          <mxGeometry x="280" y="-220" width="240" height="40" as="geometry" />
        </mxCell>
        <mxCell id="zuxQxWUdCscNBMgo1NWX-63" value="" style="rounded=0;whiteSpace=wrap;html=1;labelBackgroundColor=none;fontColor=#000000;strokeColor=#FFFF99;fillColor=#919191;" vertex="1" parent="M9VMMHDDHPspccxscUko-1">
          <mxGeometry x="520" y="-220" width="240" height="40" as="geometry" />
        </mxCell>
        <mxCell id="zuxQxWUdCscNBMgo1NWX-64" value="" style="rounded=0;whiteSpace=wrap;html=1;labelBackgroundColor=none;fontColor=#000000;strokeColor=#FFFF99;fillColor=#919191;" vertex="1" parent="M9VMMHDDHPspccxscUko-1">
          <mxGeometry x="760" y="-220" width="240" height="40" as="geometry" />
        </mxCell>
        <mxCell id="zuxQxWUdCscNBMgo1NWX-65" value="" style="rounded=0;whiteSpace=wrap;html=1;labelBackgroundColor=none;fontColor=#000000;strokeColor=#FFFF99;fillColor=#919191;" vertex="1" parent="M9VMMHDDHPspccxscUko-1">
          <mxGeometry x="40" y="-280" width="960" height="60" as="geometry" />
        </mxCell>
        <mxCell id="zuxQxWUdCscNBMgo1NWX-68" value="" style="shape=crossbar;whiteSpace=wrap;html=1;rounded=1;direction=south;labelBackgroundColor=none;fontColor=#000000;strokeColor=#FFFF99;fillColor=#919191;" vertex="1" parent="M9VMMHDDHPspccxscUko-1">
          <mxGeometry x="110" y="-280" width="20" height="60" as="geometry" />
        </mxCell>
        <mxCell id="zuxQxWUdCscNBMgo1NWX-70" value="" style="shape=crossbar;whiteSpace=wrap;html=1;rounded=1;direction=south;labelBackgroundColor=none;fontColor=#000000;strokeColor=#FFFF99;fillColor=#919191;" vertex="1" parent="M9VMMHDDHPspccxscUko-1">
          <mxGeometry x="190" y="-280" width="20" height="60" as="geometry" />
        </mxCell>
        <mxCell id="zuxQxWUdCscNBMgo1NWX-71" value="" style="shape=crossbar;whiteSpace=wrap;html=1;rounded=1;direction=south;labelBackgroundColor=none;fontColor=#000000;strokeColor=#FFFF99;fillColor=#919191;" vertex="1" parent="M9VMMHDDHPspccxscUko-1">
          <mxGeometry x="350" y="-280" width="20" height="60" as="geometry" />
        </mxCell>
        <mxCell id="zuxQxWUdCscNBMgo1NWX-72" value="" style="shape=crossbar;whiteSpace=wrap;html=1;rounded=1;direction=south;labelBackgroundColor=none;fontColor=#000000;strokeColor=#FFFF99;fillColor=#919191;" vertex="1" parent="M9VMMHDDHPspccxscUko-1">
          <mxGeometry x="270" y="-280" width="20" height="60" as="geometry" />
        </mxCell>
        <mxCell id="zuxQxWUdCscNBMgo1NWX-73" value="" style="shape=crossbar;whiteSpace=wrap;html=1;rounded=1;direction=south;labelBackgroundColor=none;fontColor=#000000;strokeColor=#FFFF99;fillColor=#919191;" vertex="1" parent="M9VMMHDDHPspccxscUko-1">
          <mxGeometry x="510" y="-280" width="20" height="60" as="geometry" />
        </mxCell>
        <mxCell id="zuxQxWUdCscNBMgo1NWX-74" value="" style="shape=crossbar;whiteSpace=wrap;html=1;rounded=1;direction=south;labelBackgroundColor=none;fontColor=#000000;strokeColor=#FFFF99;fillColor=#919191;" vertex="1" parent="M9VMMHDDHPspccxscUko-1">
          <mxGeometry x="430" y="-280" width="20" height="60" as="geometry" />
        </mxCell>
        <mxCell id="zuxQxWUdCscNBMgo1NWX-75" value="" style="shape=crossbar;whiteSpace=wrap;html=1;rounded=1;direction=south;labelBackgroundColor=none;fontColor=#000000;strokeColor=#FFFF99;fillColor=#919191;" vertex="1" parent="M9VMMHDDHPspccxscUko-1">
          <mxGeometry x="590" y="-280" width="20" height="60" as="geometry" />
        </mxCell>
        <mxCell id="zuxQxWUdCscNBMgo1NWX-76" value="" style="shape=crossbar;whiteSpace=wrap;html=1;rounded=1;direction=south;labelBackgroundColor=none;fontColor=#000000;strokeColor=#FFFF99;fillColor=#919191;" vertex="1" parent="M9VMMHDDHPspccxscUko-1">
          <mxGeometry x="670" y="-280" width="20" height="60" as="geometry" />
        </mxCell>
        <mxCell id="zuxQxWUdCscNBMgo1NWX-77" value="" style="shape=crossbar;whiteSpace=wrap;html=1;rounded=1;direction=south;labelBackgroundColor=none;fontColor=#000000;strokeColor=#FFFF99;fillColor=#919191;" vertex="1" parent="M9VMMHDDHPspccxscUko-1">
          <mxGeometry x="750" y="-280" width="20" height="60" as="geometry" />
        </mxCell>
        <mxCell id="zuxQxWUdCscNBMgo1NWX-78" value="" style="shape=crossbar;whiteSpace=wrap;html=1;rounded=1;direction=south;labelBackgroundColor=none;fontColor=#000000;strokeColor=#FFFF99;fillColor=#919191;" vertex="1" parent="M9VMMHDDHPspccxscUko-1">
          <mxGeometry x="830" y="-280" width="20" height="60" as="geometry" />
        </mxCell>
        <mxCell id="zuxQxWUdCscNBMgo1NWX-79" value="" style="shape=crossbar;whiteSpace=wrap;html=1;rounded=1;direction=south;labelBackgroundColor=none;fontColor=#000000;strokeColor=#FFFF99;fillColor=#919191;" vertex="1" parent="M9VMMHDDHPspccxscUko-1">
          <mxGeometry x="910" y="-280" width="20" height="60" as="geometry" />
        </mxCell>
        <mxCell id="zuxQxWUdCscNBMgo1NWX-80" value="" style="shape=crossbar;whiteSpace=wrap;html=1;rounded=1;direction=south;labelBackgroundColor=none;fontColor=#000000;strokeColor=#FFFF99;fillColor=#919191;" vertex="1" parent="M9VMMHDDHPspccxscUko-1">
          <mxGeometry x="990" y="-280" width="20" height="60" as="geometry" />
        </mxCell>
        <mxCell id="zuxQxWUdCscNBMgo1NWX-81" value="" style="shape=crossbar;whiteSpace=wrap;html=1;rounded=1;direction=south;labelBackgroundColor=none;fontColor=#000000;strokeColor=#FFFF99;fillColor=#919191;" vertex="1" parent="M9VMMHDDHPspccxscUko-1">
          <mxGeometry x="30" y="-280" width="20" height="60" as="geometry" />
        </mxCell>
        <mxCell id="zuxQxWUdCscNBMgo1NWX-87" value="course 2" style="rounded=0;whiteSpace=wrap;html=1;" vertex="1" parent="M9VMMHDDHPspccxscUko-1">
          <mxGeometry x="120" y="240.99999999999994" width="800" height="200" as="geometry" />
        </mxCell>
        <mxCell id="zuxQxWUdCscNBMgo1NWX-88" value="course 3" style="rounded=0;whiteSpace=wrap;html=1;" vertex="1" parent="M9VMMHDDHPspccxscUko-1">
          <mxGeometry x="120" y="441" width="800" height="200" as="geometry" />
        </mxCell>
      </root>
    </mxGraphModel>
  </diagram>
  <diagram id="EmwensYHut7ysAqirgBY" name="Page-3">
    <mxGraphModel dx="2018" dy="2293" grid="1" gridSize="10" guides="1" tooltips="1" connect="1" arrows="1" fold="1" page="1" pageScale="1" pageWidth="850" pageHeight="1100" math="0" shadow="0">
      <root>
        <mxCell id="4C5P5VCuisNgPMdY9fRf-0" />
        <mxCell id="4C5P5VCuisNgPMdY9fRf-1" parent="4C5P5VCuisNgPMdY9fRf-0" />
        <mxCell id="0fO5H12bZ2K_v5DTwQvg-0" value="" style="rounded=0;whiteSpace=wrap;html=1;" vertex="1" parent="4C5P5VCuisNgPMdY9fRf-1">
          <mxGeometry x="40" y="40" width="760" height="880" as="geometry" />
        </mxCell>
        <mxCell id="0fO5H12bZ2K_v5DTwQvg-1" value="HEADER" style="rounded=0;whiteSpace=wrap;html=1;fillColor=#919191;fontColor=#FFFFFF;" vertex="1" parent="4C5P5VCuisNgPMdY9fRf-1">
          <mxGeometry x="40" y="-80" width="760" height="80" as="geometry" />
        </mxCell>
        <mxCell id="0fO5H12bZ2K_v5DTwQvg-2" value="LOGO" style="rounded=0;whiteSpace=wrap;html=1;fillColor=#919191;fontColor=#FFFFFF;" vertex="1" parent="4C5P5VCuisNgPMdY9fRf-1">
          <mxGeometry x="40" y="-80" width="120" height="80" as="geometry" />
        </mxCell>
        <mxCell id="0fO5H12bZ2K_v5DTwQvg-3" value="course 1" style="rounded=0;whiteSpace=wrap;html=1;" vertex="1" parent="4C5P5VCuisNgPMdY9fRf-1">
          <mxGeometry x="80" y="80" width="680" height="200" as="geometry" />
        </mxCell>
        <mxCell id="0fO5H12bZ2K_v5DTwQvg-4" value="course 2" style="rounded=0;whiteSpace=wrap;html=1;" vertex="1" parent="4C5P5VCuisNgPMdY9fRf-1">
          <mxGeometry x="80" y="320" width="680" height="200" as="geometry" />
        </mxCell>
        <mxCell id="0fO5H12bZ2K_v5DTwQvg-5" value="course 3" style="rounded=0;whiteSpace=wrap;html=1;" vertex="1" parent="4C5P5VCuisNgPMdY9fRf-1">
          <mxGeometry x="80" y="560" width="680" height="200" as="geometry" />
        </mxCell>
        <mxCell id="0fO5H12bZ2K_v5DTwQvg-6" value="&lt;font color=&quot;#ffffff&quot;&gt;FOOTER&lt;/font&gt;" style="rounded=0;whiteSpace=wrap;html=1;strokeColor=#000000;fillColor=#5E5E5E;" vertex="1" parent="4C5P5VCuisNgPMdY9fRf-1">
          <mxGeometry x="40" y="800" width="760" height="120" as="geometry" />
        </mxCell>
        <mxCell id="0fO5H12bZ2K_v5DTwQvg-7" style="edgeStyle=orthogonalEdgeStyle;rounded=0;orthogonalLoop=1;jettySize=auto;html=1;exitX=0.5;exitY=1;exitDx=0;exitDy=0;" edge="1" parent="4C5P5VCuisNgPMdY9fRf-1" source="0fO5H12bZ2K_v5DTwQvg-0" target="0fO5H12bZ2K_v5DTwQvg-0">
          <mxGeometry relative="1" as="geometry" />
        </mxCell>
        <mxCell id="0fO5H12bZ2K_v5DTwQvg-8" value="SIGN OUT" style="rounded=0;whiteSpace=wrap;html=1;fillColor=#919191;fontColor=#FFFFFF;" vertex="1" parent="4C5P5VCuisNgPMdY9fRf-1">
          <mxGeometry x="680" width="120" height="40" as="geometry" />
        </mxCell>
        <mxCell id="0fO5H12bZ2K_v5DTwQvg-9" value="DASHBOARD" style="rounded=0;whiteSpace=wrap;html=1;fillColor=#f8cecc;strokeColor=#b85450;" vertex="1" parent="4C5P5VCuisNgPMdY9fRf-1">
          <mxGeometry x="40" width="120" height="40" as="geometry" />
        </mxCell>
        <mxCell id="0fO5H12bZ2K_v5DTwQvg-10" value="CABINET" style="rounded=0;whiteSpace=wrap;html=1;fillColor=#919191;fontColor=#FFFFFF;" vertex="1" parent="4C5P5VCuisNgPMdY9fRf-1">
          <mxGeometry x="160" width="120" height="40" as="geometry" />
        </mxCell>
      </root>
    </mxGraphModel>
  </diagram>
</mxfile>
